<?xml version="1.0" standalone="no"?>
<!DOCTYPE svg PUBLIC "-//W3C//DTD SVG 20010904//EN"
 "http://www.w3.org/TR/2001/REC-SVG-20010904/DTD/svg10.dtd">
<svg version="1.0"
  xmlns="http://www.w3.org/2000/svg" width="512.000000pt" height="512.000000pt" viewBox="0 0 512.000000 512.000000" preserveAspectRatio="xMidYMid meet">
  <g transform="translate(0.000000,512.000000) scale(0.100000,-0.100000)" fill="#000000" stroke="none">
    <path d="M2332 5109 c-411 -37 -845 -189 -1184 -415 -625 -418 -1024 -1058
-1130 -1814 -17 -125 -17 -515 0 -640 81 -580 331 -1089 732 -1490 401 -401
910 -651 1490 -732 125 -17 515 -17 640 0 450 63 871 235 1225 501 126 95 343
306 445 432 765 950 753 2318 -28 3249 -536 640 -1362 983 -2190 909z m-449
-1225 c62 -21 130 -83 162 -148 22 -44 30 -88 51 -272 39 -341 39 -343 -184
-567 l-157 -158 34 -62 c43 -79 162 -257 214 -322 65 -80 245 -261 327 -330
87 -72 257 -187 348 -235 l63 -33 157 156 c164 163 205 191 294 203 51 7 438
-39 514 -61 61 -18 125 -70 162 -133 27 -47 27 -48 30 -260 3 -207 3 -213 -21
-265 -30 -66 -85 -123 -146 -151 -38 -17 -63 -21 -141 -19 -285 5 -646 101
-955 253 -509 250 -899 639 -1154 1150 -145 291 -229 599 -256 940 -12 152 58
268 192 316 58 20 404 19 466 -2z"/>
  </g>
</svg>
